<svg version="1.1" id="Layer_1" xmlns="http://www.w3.org/2000/svg" xmlns:xlink="http://www.w3.org/1999/xlink" x="0px" y="0px"
	 width="100%" viewBox="0 0 512 512" enable-background="new 0 0 512 512" xml:space="preserve">
<path fill="#FFFFFF" opacity="1.000000" stroke="none" 
	d="
M513.000000,174.000000 
	C513.000000,287.305786 513.000000,400.111572 513.000000,512.958679 
	C342.402527,512.958679 171.805069,512.958679 1.103796,512.958679 
	C1.103796,342.444244 1.103796,171.888397 1.103796,1.166280 
	C171.666534,1.166280 342.333252,1.166280 513.000000,1.166280 
	C513.000000,58.528233 513.000000,116.014114 513.000000,174.000000 
M490.748016,55.448734 
	C490.302979,55.566574 489.857971,55.684414 488.789093,55.951286 
	C487.458435,57.203056 486.093658,58.420704 484.802124,59.711624 
	C455.338257,89.160599 425.937897,118.673607 396.357147,148.004639 
	C392.511932,151.817337 390.742249,155.421234 390.801117,161.163681 
	C391.187134,198.818298 391.035736,236.478882 390.956635,274.137299 
	C390.946228,279.079712 390.432831,284.028229 390.006866,288.961365 
	C388.124695,310.757843 380.491180,330.636505 368.522125,348.674316 
	C354.929230,369.159302 336.709686,384.893524 314.582733,395.575592 
	C289.130615,407.862915 262.079102,411.827606 234.275375,406.784851 
	C201.476028,400.835999 174.283386,384.699127 153.179382,358.695038 
	C133.021317,333.856476 123.051163,305.372192 123.011131,273.420258 
	C122.963745,235.595093 122.934219,197.769562 123.096008,159.945038 
	C123.113258,155.912552 121.844986,153.216949 119.043747,150.432938 
	C88.669472,120.245399 58.425468,89.926811 28.135008,59.654903 
	C26.847696,58.368374 25.453871,57.188423 23.827757,55.448963 
	C23.272568,55.632809 22.717379,55.816654 22.038527,56.930290 
	C22.359018,132.871429 22.399096,208.815689 23.245697,284.750946 
	C23.407551,299.268341 25.939915,313.912415 28.807631,328.211487 
	C33.401169,351.115906 42.605789,372.409668 54.257805,392.651703 
	C68.346741,417.127197 86.380692,438.348846 108.044289,456.301849 
	C123.649460,469.234131 140.871887,479.782501 159.412872,488.272858 
	C184.355042,499.694489 210.429962,507.039459 237.655853,508.676880 
	C254.938553,509.716309 272.465607,508.365906 289.776733,506.862732 
	C314.950226,504.676849 338.581268,496.362061 361.094269,485.274078 
	C378.843964,476.532135 395.269318,465.619476 410.235046,452.448273 
	C424.476898,439.914185 437.096222,426.066833 448.106232,410.672119 
	C464.365997,387.936920 476.486328,363.133636 483.237793,336.060425 
	C486.917175,321.306183 490.513153,306.044098 490.658295,290.977448 
	C491.398407,214.153275 491.000885,137.318100 490.993134,60.486790 
	C490.992981,58.989746 490.891571,57.492710 490.748016,55.448734 
M63.499996,61.000004 
	C127.567436,125.067726 191.634872,189.135452 254.417786,251.918625 
	C335.382965,170.953629 415.979034,90.357758 496.707855,9.629126 
	C495.286926,9.474308 493.110992,9.032505 490.934631,9.030384 
	C448.939697,8.989463 406.944641,9.038433 364.949982,8.925841 
	C361.652466,8.917001 359.422638,9.979272 357.153503,12.257228 
	C324.928925,44.606945 292.608917,76.861595 260.383667,109.210648 
	C259.013824,110.585785 258.338654,112.652969 257.339874,114.397751 
	C256.546082,114.154671 255.752258,113.911598 254.958450,113.668518 
	C253.878967,112.185654 252.974472,110.528175 251.694427,109.245461 
	C219.440964,76.924438 187.130386,44.660400 154.900055,12.316371 
	C152.651443,10.059830 150.460922,8.911056 147.129761,8.920253 
	C103.635307,9.040346 60.140408,8.997343 16.645630,9.012315 
	C15.284448,9.012783 13.923329,9.195410 11.843088,9.344732 
	C29.307821,26.808908 46.153908,43.654457 63.499996,61.000004 
M499.416016,9.251484 
	C499.304626,9.325084 499.193237,9.398685 499.081848,9.472277 
	C499.169434,9.572946 499.247864,9.741878 499.347168,9.755176 
	C499.447144,9.768573 499.567871,9.627266 499.416016,9.251484 
z"/>
<path fill="#999999" opacity="1.000000" stroke="none" 
	d="
M24.109665,55.958820 
	C25.453871,57.188423 26.847696,58.368374 28.135008,59.654903 
	C58.425468,89.926811 88.669472,120.245399 119.043747,150.432938 
	C121.844986,153.216949 123.113258,155.912552 123.096008,159.945038 
	C122.934219,197.769562 122.963745,235.595093 123.011131,273.420258 
	C123.051163,305.372192 133.021317,333.856476 153.179382,358.695038 
	C174.283386,384.699127 201.476028,400.835999 234.275375,406.784851 
	C262.079102,411.827606 289.130615,407.862915 314.582733,395.575592 
	C336.709686,384.893524 354.929230,369.159302 368.522125,348.674316 
	C380.491180,330.636505 388.124695,310.757843 390.006866,288.961365 
	C390.432831,284.028229 390.946228,279.079712 390.956635,274.137299 
	C391.035736,236.478882 391.187134,198.818298 390.801117,161.163681 
	C390.742249,155.421234 392.511932,151.817337 396.357147,148.004639 
	C425.937897,118.673607 455.338257,89.160599 484.802124,59.711624 
	C486.093658,58.420704 487.458435,57.203056 489.456909,55.932514 
	C490.362305,55.941055 490.599854,55.968365 490.837372,55.995670 
	C490.891571,57.492710 490.992981,58.989746 490.993134,60.486790 
	C491.000885,137.318100 491.398407,214.153275 490.658295,290.977448 
	C490.513153,306.044098 486.917175,321.306183 483.237793,336.060425 
	C476.486328,363.133636 464.365997,387.936920 448.106232,410.672119 
	C437.096222,426.066833 424.476898,439.914185 410.235046,452.448273 
	C395.269318,465.619476 378.843964,476.532135 361.094269,485.274078 
	C338.581268,496.362061 314.950226,504.676849 289.776733,506.862732 
	C272.465607,508.365906 254.938553,509.716309 237.655853,508.676880 
	C210.429962,507.039459 184.355042,499.694489 159.412872,488.272858 
	C140.871887,479.782501 123.649460,469.234131 108.044289,456.301849 
	C86.380692,438.348846 68.346741,417.127197 54.257805,392.651703 
	C42.605789,372.409668 33.401169,351.115906 28.807631,328.211487 
	C25.939915,313.912415 23.407551,299.268341 23.245697,284.750946 
	C22.399096,208.815689 22.359018,132.871429 22.424667,56.462990 
	C23.243759,55.983398 23.676712,55.971107 24.109665,55.958820 
z"/>
<path fill="#999999" opacity="1.000000" stroke="none" 
	d="
M63.249996,60.750004 
	C46.153908,43.654457 29.307821,26.808908 11.843088,9.344732 
	C13.923329,9.195410 15.284448,9.012783 16.645630,9.012315 
	C60.140408,8.997343 103.635307,9.040346 147.129761,8.920253 
	C150.460922,8.911056 152.651443,10.059830 154.900055,12.316371 
	C187.130386,44.660400 219.440964,76.924438 251.694427,109.245461 
	C252.974472,110.528175 253.878967,112.185654 254.958450,113.668518 
	C255.752258,113.911598 256.546082,114.154671 257.339874,114.397751 
	C258.338654,112.652969 259.013824,110.585785 260.383667,109.210648 
	C292.608917,76.861595 324.928925,44.606945 357.153503,12.257228 
	C359.422638,9.979272 361.652466,8.917001 364.949982,8.925841 
	C406.944641,9.038433 448.939697,8.989463 490.934631,9.030384 
	C493.110992,9.032505 495.286926,9.474308 496.707855,9.629126 
	C415.979034,90.357758 335.382965,170.953629 254.417786,251.918625 
	C191.634872,189.135452 127.567436,125.067726 63.249996,60.750004 
z"/>
<path fill="#999999" opacity="1.000000" stroke="none" 
	d="
M23.968712,55.703892 
	C23.676712,55.971107 23.243759,55.983398 22.486498,55.998093 
	C22.717379,55.816654 23.272568,55.632809 23.968712,55.703892 
z"/>
<path fill="#999999" opacity="1.000000" stroke="none" 
	d="
M499.547760,9.402615 
	C499.567871,9.627266 499.447144,9.768573 499.347168,9.755176 
	C499.247864,9.741878 499.169434,9.572946 499.081848,9.472281 
	C499.193237,9.398685 499.304626,9.325084 499.547760,9.402615 
z"/>
<path fill="#999999" opacity="1.000000" stroke="none" 
	d="
M490.792694,55.722202 
	C490.599854,55.968365 490.362305,55.941055 489.768860,55.857998 
	C489.857971,55.684414 490.302979,55.566574 490.792694,55.722202 
z"/>
</svg>